<?xml version="1.0" encoding="UTF-8"?>
<svg width="800px" height="800px" viewBox="0 0 800 800" version="1.1" xmlns="http://www.w3.org/2000/svg" xmlns:xlink="http://www.w3.org/1999/xlink">
    <!-- Generator: Sketch 55.2 (78181) - https://sketchapp.com -->
    <title>t2wml logo</title>
    <desc>Created with Sketch.</desc>
    <g id="t2wml-logo" stroke="none" stroke-width="1" fill="none" fill-rule="evenodd">
        <path d="M33.9995733,61 L717.000427,61 C722.520191,61 727,65.4789009 727,70.9975466 L727,703.002453 C727,708.521099 722.520191,713 717.000427,713 L33.9995733,713 C28.4798088,713 24,708.521099 24,703.002453 L24,70.9975466 C24,65.4789009 28.4798088,61 33.9995733,61 Z" id="background" fill="#4D4D4D" fill-rule="nonzero"></path>
        <g id="col-1" transform="translate(61.000000, 173.000000)" fill-rule="nonzero">
            <path d="M10.19,0.81 L174.94,0.81 C180.46,0.81 184.94,5.29 184.94,10.81 L184.94,133 C184.94,138.52 180.46,143 174.94,143 L10.19,143 C4.66,143 0.19,138.52 0.19,133 L0.19,10.81 C0.19,5.29 4.66,0.81 10.19,0.81 Z" id="Rounded-Rectangle-2" fill="#FFFFFF"></path>
            <path d="M10.19,182.47 L174.94,182.47 C180.46,182.47 184.94,186.95 184.94,192.47 L184.94,314.66 C184.94,320.18 180.46,324.66 174.94,324.66 L10.19,324.66 C4.66,324.66 0.19,320.18 0.19,314.66 L0.19,192.47 C0.19,186.95 4.66,182.47 10.19,182.47 Z" id="Rounded-Rectangle-2-copy" fill="#8F0E10"></path>
            <path d="M10.19,364.13 L174.94,364.13 C180.46,364.13 184.94,368.6 184.94,374.13 L184.94,496.28 C184.94,501.8 180.46,506.28 174.94,506.28 L10.19,506.28 C4.66,506.28 0.19,501.8 0.19,496.28 L0.19,374.13 C0.19,368.6 4.66,364.13 10.19,364.13 Z" id="Rounded-Rectangle-2-copy-2" fill="#FFFFFF"></path>
        </g>
        <g id="col-2" transform="translate(280.000000, 173.000000)" fill-rule="nonzero">
            <path d="M10.88,0.81 L175.66,0.81 C181.18,0.81 185.66,5.29 185.66,10.81 L185.66,133 C185.66,138.52 181.18,143 175.66,143 L10.88,143 C5.35,143 0.88,138.52 0.88,133 L0.88,10.81 C0.88,5.29 5.35,0.81 10.88,0.81 Z" id="Rounded-Rectangle-2" fill="#FFFFFF"></path>
            <path d="M10.88,182.47 L175.66,182.47 C181.18,182.47 185.66,186.95 185.66,192.47 L185.66,314.66 C185.66,320.18 181.18,324.66 175.66,324.66 L10.88,324.66 C5.35,324.66 0.88,320.18 0.88,314.66 L0.88,192.47 C0.88,186.95 5.35,182.47 10.88,182.47 Z" id="Rounded-Rectangle-2-copy" fill="#FFFFFF"></path>
            <path d="M10.88,364.13 L175.66,364.13 C181.18,364.13 185.66,368.6 185.66,374.13 L185.66,496.28 C185.66,501.8 181.18,506.28 175.66,506.28 L10.88,506.28 C5.35,506.28 0.88,501.8 0.88,496.28 L0.88,374.13 C0.88,368.6 5.35,364.13 10.88,364.13 Z" id="Rounded-Rectangle-2-copy-2" fill="#2A8E5C"></path>
        </g>
        <g id="col-3" transform="translate(500.000000, 173.000000)" fill-rule="nonzero">
            <path d="M10.56,0.81 L175.34,0.81 C180.87,0.81 185.34,5.29 185.34,10.81 L185.34,133 C185.34,138.52 180.87,143 175.34,143 L10.56,143 C5.04,143 0.56,138.52 0.56,133 L0.56,10.81 C0.56,5.29 5.04,0.81 10.56,0.81 Z" id="Rounded-Rectangle-2" fill="#055A8C"></path>
            <path d="M10.56,182.47 L175.34,182.47 C180.87,182.47 185.34,186.95 185.34,192.47 L185.34,314.66 C185.34,320.18 180.87,324.66 175.34,324.66 L10.56,324.66 C5.04,324.66 0.56,320.18 0.56,314.66 L0.56,192.47 C0.56,186.95 5.04,182.47 10.56,182.47 Z" id="Rounded-Rectangle-2-copy" fill="#FFFFFF"></path>
            <path d="M10.56,364.13 L175.34,364.13 C180.87,364.13 185.34,368.6 185.34,374.13 L185.34,496.28 C185.34,501.8 180.87,506.28 175.34,506.28 L10.56,506.28 C5.04,506.28 0.56,501.8 0.56,496.28 L0.56,374.13 C0.56,368.6 5.04,364.13 10.56,364.13 Z" id="Rounded-Rectangle-2-copy-2" fill="#FFFFFF"></path>
        </g>
        <g id="kg" transform="translate(383.000000, 339.000000)" fill-rule="nonzero">
            <path d="M256.329103,287.924404 L149.811252,324.784819 C150.3961,364.037274 120.450343,397.542827 80.86,400.75 C39.62,404.09 3.53,373.3 0.25,331.97 C-2.93426158,291.846362 25.963322,256.548196 65.3861655,251.465792 L89.0651369,140.456021 C68.1827665,128.605826 53.3567204,106.919925 51.31,81.13 C48.03,39.8 78.8,3.59 120.05,0.25 C161.29,-3.09 197.39,27.71 200.67,69.04 C201.619203,80.9613003 199.732455,92.4572495 195.57676,102.86118 L283.197211,180.952288 C292.165039,176.030889 302.285712,172.878485 313.13,172 C354.37,168.66 390.46,199.46 393.74,240.78 C397.02,282.11 366.26,318.32 325.02,321.66 C296.714043,323.95248 270.838992,310.161412 256.329103,287.924404 Z M244.423858,253.051615 C244.419176,252.99443 244.414556,252.937225 244.41,252.88 C243.052799,235.778446 247.52545,219.553509 256.156713,206.171146 L173.830853,132.806387 C162.359712,142.373171 147.936773,148.614432 131.94,149.91 C129.472692,150.109777 127.02381,150.187449 124.599273,150.148063 L102.039319,255.893459 C118.186275,262.176171 131.745884,273.948484 140.247708,289.101686 L244.423858,253.051615 Z" id="border" stroke="#FFFFFF" stroke-width="45"></path>
            <polygon id="red-line" fill="#8F0E10" points="109.94 75.87 134.38 48.32 339.7 231.31 315.27 258.85"></polygon>
            <polygon id="green-line" fill="#2A8E5C" points="106.47 58.86 142.43 66.57 84.61 337.59 48.66 329.88"></polygon>
            <polygon id="blue-line" fill="#055A8C" points="297.08 234.83 309.08 269.67 99.63 342.15 87.63 307.31"></polygon>
            <path d="M120.05,0.25 C161.29,-3.09 197.39,27.71 200.67,69.04 C203.96,110.36 173.18,146.57 131.94,149.91 C90.69,153.25 54.59,122.46 51.31,81.13 C48.03,39.8 78.8,3.59 120.05,0.25 Z" id="red-ball" fill="#8F0E10"></path>
            <path d="M68.97,251.09 C110.2,247.75 146.29,278.55 149.58,319.88 C152.86,361.21 122.09,397.41 80.86,400.75 C39.62,404.09 3.53,373.3 0.25,331.97 C-3.03,290.64 27.73,254.43 68.97,251.09 Z" id="green-ball" fill="#2A8E5C"></path>
            <path d="M313.13,172 C354.37,168.66 390.46,199.46 393.74,240.78 C397.02,282.11 366.26,318.32 325.02,321.66 C283.78,325 247.7,294.2 244.41,252.88 C241.13,211.55 271.9,175.34 313.13,172 Z" id="blue-ball" fill="#055A8C"></path>
        </g>
    </g>
</svg>